# xmcd
#
# Track frame offsets:
# 150
# 17093
# 41970
# 58830
# 76956
# 97421
# 118693
# 139468
# 157308
# 172109
# 193044
# 206290
# 224447
# 240582
#
# Disc length: 3442 seconds
#
#
# Revision: 0
# Processed by: cddbd v1.5.2PL0 Copyright (c) Steve Scherf et al.
# Submitted via: Nero 7, 11, 10, 0 
#
DISCID=db0d700e
DTITLE=Fried Bourbon - Boogie Blend Blues
DYEAR=2007
DGENRE=Blues
TTITLE0=Go Ahead
TTITLE1=Stuck In The Mud
TTITLE2=Blue Picasso Night
TTITLE3=Burnerby Square
TTITLE4=Turkey In The Corn
TTITLE5=Morning Train
TTITLE6='Fry' Day
TTITLE7=Poontang
TTITLE8=Same Old World
TTITLE9=Lushhead
TTITLE10=Shoeshine Boy
TTITLE11=Babylon
TTITLE12=Seven Months
TTITLE13=Streamline Baby
EXTD=
EXTT0=Go Ahead
EXTT1=Stuck In The Mud
EXTT2=Blue Picasso Night
EXTT3=Burnerby Square
EXTT4=Turkey In The Corn
EXTT5=Morning Train
EXTT6='Fry' Day
EXTT7=Poontang
EXTT8=Same Old World
EXTT9=Lushhead
EXTT10=Shoeshine Boy
EXTT11=Babylon
EXTT12=Seven Months
EXTT13=Streamline Baby
PLAYORDER=
